<svg width="556" height="492" viewBox="0 0 556 492" fill="none" xmlns="http://www.w3.org/2000/svg">
<path d="M262.071 457.383C220.358 475.306 168.902 495.218 122.854 491.383C76.64 487.994 35.5172 461.035 16.0852 422.891C-3.81394 384.66 -2.33937 335.421 8.91157 289.436C20.0124 243.184 40.8897 200.186 66.9056 158.147C93.2385 115.93 124.71 74.671 166.891 43.5052C209.39 12.1606 262.131 -9.17847 301.036 5.7015C339.941 20.5814 364.544 71.5932 397.491 100.358C430.438 129.123 471.263 135.553 501.726 156.951C532.038 178.082 551.987 214.181 555.402 255.048C558.35 295.828 544.614 341.112 510.374 367.095C476.286 393.344 421.544 400.027 378.264 411.467C334.984 422.908 303.633 439.194 262.071 457.383Z" fill="url(#paint0_linear_46_28)"/>
<defs>
<linearGradient id="paint0_linear_46_28" x1="135.235" y1="58.9294" x2="358.244" y2="454.181" gradientUnits="userSpaceOnUse">
<stop stop-color="#1400FF"/>
<stop offset="1" stop-color="#4584FF"/>
</linearGradient>
</defs>
</svg>
